<svg version="1.1" archibusversion="23.2" xmlns="http://www.w3.org/2000/svg" xmlns:xlink="http://www.w3.org/1999/xlink" viewBox="60 0 400 520">
    <style>
        .a-door{stroke:#ffcb05}.a-eqpm,.a-glaz,.a-glaz-cwmg{stroke:#ffcb05;stroke-width:.10287%}.a-door{stroke-width:.14859%}.a-detl-genf,.a-flor-hral{stroke:silver;stroke-width:.10287%}.a-detl-genf{stroke:#0f0}
    </style>
    <view class="selectablePath" id="defaultView" units="inches" viewBox="60 0 400 520"/>
    <g>
        <path d="M 360.8 284.4 L 360.8 180.75 141.35 180.75 141.35 284.4 360.8 284.4 Z" fill="#7EB168"/>
        <path d="M 141.35 180.75 L 360.8 180.75 360.8 284.4 141.35 284.4 141.35 180.75 Z" fill="none" stroke="#FFFFFF" stroke-width="1"/>
        <path d="M 411.45 318.5 L 412.45 154.5 88 155.5 87 317 411.45 318.5 M 351.9 181.75 L 351.9 283.5 152.6 283.5 152.6 181.75 351.9 181.75 Z" fill="#BFD8B4"/>
        <path d="M 351.9 283.5 L 351.9 181.75 152.6 181.75 152.6 283.5 351.9 283.5 Z" fill="#7EB168"/>
        <path d="M 360.8 180.45 L 342.55 180.45 342.55 284.45 360.8 284.45 360.8 180.45 Z" fill="#517741"/>
        <path d="M 159 180.45 L 140.75 180.45 140.75 284.45 159 284.45 159 180.45 Z" fill="#517741"/>
        <path d="M 207.058 272.1841 L 204.8627 272.7328 207.058 273.2393 207.058 272.1841 M 207.058 190.51 L 207.058 189.4547 204.8627 190.0035 207.058 190.51 M 188.8195 273.2393 L 188.8195 272.1841 186.6241 272.7328 188.8195 273.2393 M 188.8195 190.51 L 188.8195 189.4547 186.6241 190.0035 188.8195 190.51 M 225.5499 272.1841 L 223.3545 272.7328 225.5499 273.2393 225.5499 272.1841 M 225.5499 190.51 L 225.5499 189.4547 223.3545 190.0035 225.5499 190.51 M 168.5545 272.7328 L 170.7499 273.2393 170.7499 272.1841 168.5545 272.7328 M 170.7499 190.51 L 170.7499 189.4547 168.5545 190.0035 170.7499 190.51 M 330.168 272.1841 L 330.168 273.2393 332.3634 272.7328 330.168 272.1841 M 330.168 189.4547 L 330.168 190.51 332.3634 190.0035 330.168 189.4547 M 276.9723 272.7328 L 274.7769 272.1841 274.7769 273.2393 276.9723 272.7328 M 274.7769 189.4547 L 274.7769 190.51 276.9723 190.0035 274.7769 189.4547 M 313.956 272.7328 L 311.7606 272.1841 311.7606 273.2393 313.956 272.7328 M 311.7606 190.51 L 313.956 190.0035 311.7606 189.4547 311.7606 190.51 M 295.633 272.7328 L 293.4377 272.1841 293.4377 273.2393 295.633 272.7328 M 293.4377 189.4547 L 293.4377 190.51 295.633 190.0035 293.4377 189.4547 Z" fill="#FFFFFF"/>
        <path d="M 292.8044 180.7175 L 294.5775 180.7175 296.6463 180.7175 298.5461 180.7175 300.3193 180.7175 302.0503 180.7175 303.8235 180.7175 305.8077 180.7175 307.5809 180.7175 309.3541 180.7175 311.0851 180.7175 312.8583 180.7175 314.8848 180.7175 316.7846 180.7175 318.5578 180.7175 320.2888 180.7175 322.062 180.7175 323.9618 180.7175 326.1994 180.7175 327.9726 180.7175 329.7036 180.7175 331.4768 180.7175 333.5877 180.7175 335.3187 180.7175 337.0919 180.7175 338.8228 180.7175 340.596 180.7175 342.4959 180.7175 360.7766 180.7175 360.7766 284.4247 342.4959 284.4247 333.5877 284.4247 323.9618 284.4247 314.8848 284.4247 305.8077 284.4247 296.6463 284.4247 287.4848 284.4247 277.9011 284.4247 268.8241 284.4247 259.2827 284.4247 250.1212 284.4247 241.0441 284.4247 231.9249 284.4247 222.7212 284.4247 213.1375 284.4247 203.9761 284.4247 194.9835 284.4247 185.4842 284.4247 176.7449 284.4247 167.6679 284.4247 159.5619 284.4247 141.3234 284.4247 141.3234 180.7175 159.5619 180.7175 160.9129 180.7175 162.6861 180.7175 164.4171 180.7175 166.1902 180.7175 167.6679 180.7175 169.4833 180.7175 171.2565 180.7175 172.9875 180.7175 174.7607 180.7175 176.7449 180.7175 178.3915 180.7175 180.1647 180.7175 181.8956 180.7175 183.6688 180.7175 185.4842 180.7175 187.4685 180.7175 189.2417 180.7175 190.9727 180.7175 192.7458 180.7175 194.9835 180.7175 196.7989 180.7175 198.5721 180.7175 200.303 180.7175 202.0762 180.7175 203.9761 180.7175 205.8337 180.7175 207.6069 180.7175 209.3378 180.7175 211.111 180.7175 213.1375 180.7175 215.2063 180.7175 216.9794 180.7175 218.7104 180.7175 220.4836 180.7175 222.7212 180.7175 224.6633 180.7175 226.4364 180.7175 228.1674 180.7175 229.9406 180.7175 231.9249 180.7175 233.8247 180.7175 235.5979 180.7175 237.3289 180.7175 239.1021 180.7175 241.0441 180.7175 243.0284 180.7175 244.8016 180.7175 246.5326 180.7175 248.3058 180.7175 250.1212 180.7175 252.021 180.7175 253.7942 180.7175 255.5252 180.7175 257.2984 180.7175 259.2827 180.7175 261.3091 180.7175 263.0823 180.7175 264.8133 180.7175 266.5865 180.7175 268.8241 180.7175 270.7239 180.7175 272.4971 180.7175 274.2281 180.7175 276.0013 180.7175 277.9011 180.7175 279.9698 180.7175 281.743 180.7175 283.474 180.7175 285.2472 180.7175 287.4848 180.7175 289.3002 180.7175 291.0734 180.7175 292.8044 180.7175 Z" fill="none" stroke="#FFFFFF" stroke-width="2"/>
        <path d="M 292.8044 180.7175 L 292.8044 182.6169 M 291.0734 180.7175 L 291.0734 182.6169 M 285.2472 180.7175 L 285.2472 182.6169 M 289.3002 180.7175 L 289.3002 182.6169 M 298.5461 180.7175 L 298.5461 182.6169 M 300.3193 180.7175 L 300.3193 182.6169 M 302.0503 180.7175 L 302.0503 182.6169 M 294.5775 180.7175 L 294.5775 182.6169 M 307.5809 180.7175 L 307.5809 182.6169 M 309.3541 180.7175 L 309.3541 182.6169 M 303.8235 180.7175 L 303.8235 182.6169 M 316.7846 180.7175 L 316.7846 182.6169 M 318.5578 180.7175 L 318.5578 182.6169 M 311.0851 180.7175 L 311.0851 182.6169 M 312.8583 180.7175 L 312.8583 182.6169 M 257.2984 180.7175 L 257.2984 182.6169 M 255.5252 180.7175 L 255.5252 182.6169 M 252.021 180.7175 L 252.021 182.6169 M 253.7942 180.7175 L 253.7942 182.6169 M 266.5865 180.7175 L 266.5865 182.6169 M 264.8133 180.7175 L 264.8133 182.6169 M 261.3091 180.7175 L 261.3091 182.6169 M 263.0823 180.7175 L 263.0823 182.6169 M 272.4971 180.7175 L 272.4971 182.6169 M 276.0013 180.7175 L 276.0013 182.6169 M 274.2281 180.7175 L 274.2281 182.6169 M 270.7239 180.7175 L 270.7239 182.6169 M 283.474 180.7175 L 283.474 182.6169 M 281.743 180.7175 L 281.743 182.6169 M 279.9698 180.7175 L 279.9698 182.6169 M 252.021 222.04 L 252.021 223.8128 M 261.3091 222.04 L 261.3091 223.8128 M 255.5252 222.04 L 255.5252 223.8128 M 257.2984 222.04 L 257.2984 223.8128 M 253.7942 222.04 L 253.7942 223.8128 M 263.0823 222.04 L 263.0823 223.8128 M 266.5865 222.04 L 266.5865 223.8128 M 264.8133 222.04 L 264.8133 223.8128 M 281.743 222.04 L 281.743 223.8128 M 279.9698 222.04 L 279.9698 223.8128 M 283.474 222.04 L 283.474 223.8128 M 274.2281 222.04 L 274.2281 223.8128 M 276.0013 222.04 L 276.0013 223.8128 M 270.7239 222.04 L 270.7239 223.8128 M 272.4971 222.04 L 272.4971 223.8128 M 285.2472 222.04 L 285.2472 223.8128 M 291.0734 222.04 L 291.0734 223.8128 M 289.3002 222.04 L 289.3002 223.8128 M 294.5775 222.04 L 294.5775 223.8128 M 292.8044 222.04 L 292.8044 223.8128 M 302.0503 222.04 L 302.0503 223.8128 M 298.5461 222.04 L 298.5461 223.8128 M 300.3193 222.04 L 300.3193 223.8128 M 309.3541 222.04 L 309.3541 223.8128 M 307.5809 222.04 L 307.5809 223.8128 M 311.0851 222.04 L 311.0851 223.8128 M 312.8583 222.04 L 312.8583 223.8128 M 316.7846 222.04 L 316.7846 223.8128 M 318.5578 222.04 L 318.5578 223.8128 M 303.8235 222.04 L 303.8235 223.8128 M 326.1994 180.7175 L 326.1994 182.6169 M 327.9726 180.7175 L 327.9726 182.6169 M 320.2888 180.7175 L 320.2888 182.6169 M 322.062 180.7175 L 322.062 182.6169 M 335.3187 180.7175 L 335.3187 182.6169 M 331.4768 180.7175 L 331.4768 182.6169 M 329.7036 180.7175 L 329.7036 182.6169 M 337.0919 180.7175 L 337.0919 182.6169 M 340.596 180.7175 L 340.596 182.6169 M 338.8228 180.7175 L 338.8228 182.6169 M 320.2888 222.04 L 320.2888 223.8128 M 331.4768 222.04 L 331.4768 223.8128 M 335.3187 222.04 L 335.3187 223.8128 M 322.062 222.04 L 322.062 223.8128 M 327.9726 222.04 L 327.9726 223.8128 M 326.1994 222.04 L 326.1994 223.8128 M 329.7036 222.04 L 329.7036 223.8128 M 337.0919 222.04 L 337.0919 223.8128 M 338.8228 222.04 L 338.8228 223.8128 M 340.596 222.04 L 340.596 223.8128 M 337.0919 237.9105 L 337.0919 239.6833 M 340.596 237.9105 L 340.596 239.6833 M 338.8228 237.9105 L 338.8228 239.6833 M 331.4768 237.9105 L 331.4768 239.6833 M 326.1994 237.9105 L 326.1994 239.6833 M 327.9726 237.9105 L 327.9726 239.6833 M 322.062 237.9105 L 322.062 239.6833 M 335.3187 237.9105 L 335.3187 239.6833 M 320.2888 237.9105 L 320.2888 239.6833 M 329.7036 237.9105 L 329.7036 239.6833 M 340.596 282.3142 L 340.596 284.087 M 338.8228 282.3142 L 338.8228 284.087 M 337.0919 282.3142 L 337.0919 284.087 M 322.062 282.3142 L 322.062 284.087 M 331.4768 282.3142 L 331.4768 284.087 M 329.7036 282.3142 L 329.7036 284.087 M 326.1994 282.3142 L 326.1994 284.087 M 320.2888 282.3142 L 320.2888 284.087 M 327.9726 282.3142 L 327.9726 284.087 M 335.3187 282.3142 L 335.3187 284.087 M 303.8235 237.9105 L 303.8235 239.6833 M 311.0851 237.9105 L 311.0851 239.6833 M 307.5809 237.9105 L 307.5809 239.6833 M 309.3541 237.9105 L 309.3541 239.6833 M 318.5578 237.9105 L 318.5578 239.6833 M 312.8583 237.9105 L 312.8583 239.6833 M 316.7846 237.9105 L 316.7846 239.6833 M 291.0734 237.9105 L 291.0734 239.6833 M 294.5775 237.9105 L 294.5775 239.6833 M 289.3002 237.9105 L 289.3002 239.6833 M 292.8044 237.9105 L 292.8044 239.6833 M 302.0503 237.9105 L 302.0503 239.6833 M 300.3193 237.9105 L 300.3193 239.6833 M 285.2472 237.9105 L 285.2472 239.6833 M 298.5461 237.9105 L 298.5461 239.6833 M 272.4971 237.9105 L 272.4971 239.6833 M 281.743 237.9105 L 281.743 239.6833 M 283.474 237.9105 L 283.474 239.6833 M 279.9698 237.9105 L 279.9698 239.6833 M 274.2281 237.9105 L 274.2281 239.6833 M 276.0013 237.9105 L 276.0013 239.6833 M 270.7239 237.9105 L 270.7239 239.6833 M 266.5865 237.9105 L 266.5865 239.6833 M 263.0823 237.9105 L 263.0823 239.6833 M 264.8133 237.9105 L 264.8133 239.6833 M 261.3091 237.9105 L 261.3091 239.6833 M 255.5252 237.9105 L 255.5252 239.6833 M 257.2984 237.9105 L 257.2984 239.6833 M 252.021 237.9105 L 252.021 239.6833 M 253.7942 237.9105 L 253.7942 239.6833 M 283.474 282.3142 L 283.474 284.087 M 279.9698 282.3142 L 279.9698 284.087 M 281.743 282.3142 L 281.743 284.087 M 276.0013 282.3142 L 276.0013 284.087 M 272.4971 282.3142 L 272.4971 284.087 M 274.2281 282.3142 L 274.2281 284.087 M 270.7239 282.3142 L 270.7239 284.087 M 252.021 282.3142 L 252.021 284.087 M 261.3091 282.3142 L 261.3091 284.087 M 255.5252 282.3142 L 255.5252 284.087 M 257.2984 282.3142 L 257.2984 284.087 M 253.7942 282.3142 L 253.7942 284.087 M 263.0823 282.3142 L 263.0823 284.087 M 264.8133 282.3142 L 264.8133 284.087 M 266.5865 282.3142 L 266.5865 284.087 M 309.3541 282.3142 L 309.3541 284.087 M 312.8583 282.3142 L 312.8583 284.087 M 318.5578 282.3142 L 318.5578 284.087 M 316.7846 282.3142 L 316.7846 284.087 M 311.0851 282.3142 L 311.0851 284.087 M 307.5809 282.3142 L 307.5809 284.087 M 303.8235 282.3142 L 303.8235 284.087 M 302.0503 282.3142 L 302.0503 284.087 M 300.3193 282.3142 L 300.3193 284.087 M 298.5461 282.3142 L 298.5461 284.087 M 294.5775 282.3142 L 294.5775 284.087 M 285.2472 282.3142 L 285.2472 284.087 M 289.3002 282.3142 L 289.3002 284.087 M 292.8044 282.3142 L 292.8044 284.087 M 291.0734 282.3142 L 291.0734 284.087 M 160.9129 180.7175 L 160.9129 182.6169 M 162.6861 180.7175 L 162.6861 182.6169 M 164.4171 180.7175 L 164.4171 182.6169 M 171.2565 180.7175 L 171.2565 182.6169 M 172.9875 180.7175 L 172.9875 182.6169 M 166.1902 180.7175 L 166.1902 182.6169 M 169.4833 180.7175 L 169.4833 182.6169 M 178.3915 180.7175 L 178.3915 182.6169 M 181.8956 180.7175 L 181.8956 182.6169 M 180.1647 180.7175 L 180.1647 182.6169 M 174.7607 180.7175 L 174.7607 182.6169 M 162.6861 222.04 L 162.6861 223.8128 M 164.4171 222.04 L 164.4171 223.8128 M 160.9129 222.04 L 160.9129 223.8128 M 169.4833 222.04 L 169.4833 223.8128 M 166.1902 222.04 L 166.1902 223.8128 M 172.9875 222.04 L 172.9875 223.8128 M 174.7607 222.04 L 174.7607 223.8128 M 180.1647 222.04 L 180.1647 223.8128 M 171.2565 222.04 L 171.2565 223.8128 M 181.8956 222.04 L 181.8956 223.8128 M 178.3915 222.04 L 178.3915 223.8128 M 224.6633 180.7175 L 224.6633 182.6169 M 216.9794 180.7175 L 216.9794 182.6169 M 220.4836 180.7175 L 220.4836 182.6169 M 218.7104 180.7175 L 218.7104 182.6169 M 233.8247 180.7175 L 233.8247 182.6169 M 229.9406 180.7175 L 229.9406 182.6169 M 228.1674 180.7175 L 228.1674 182.6169 M 226.4364 180.7175 L 226.4364 182.6169 M 239.1021 180.7175 L 239.1021 182.6169 M 235.5979 180.7175 L 235.5979 182.6169 M 237.3289 180.7175 L 237.3289 182.6169 M 248.3058 180.7175 L 248.3058 182.6169 M 244.8016 180.7175 L 244.8016 182.6169 M 243.0284 180.7175 L 243.0284 182.6169 M 246.5326 180.7175 L 246.5326 182.6169 M 190.9727 180.7175 L 190.9727 182.6169 M 187.4685 180.7175 L 187.4685 182.6169 M 189.2417 180.7175 L 189.2417 182.6169 M 183.6688 180.7175 L 183.6688 182.6169 M 198.5721 180.7175 L 198.5721 182.6169 M 196.7989 180.7175 L 196.7989 182.6169 M 192.7458 180.7175 L 192.7458 182.6169 M 205.8337 180.7175 L 205.8337 182.6169 M 207.6069 180.7175 L 207.6069 182.6169 M 202.0762 180.7175 L 202.0762 182.6169 M 200.303 180.7175 L 200.303 182.6169 M 215.2063 180.7175 L 215.2063 182.6169 M 211.111 180.7175 L 211.111 182.6169 M 209.3378 180.7175 L 209.3378 182.6169 M 183.6688 222.04 L 183.6688 223.8128 M 192.7458 222.04 L 192.7458 223.8128 M 187.4685 222.04 L 187.4685 223.8128 M 189.2417 222.04 L 189.2417 223.8128 M 190.9727 222.04 L 190.9727 223.8128 M 196.7989 222.04 L 196.7989 223.8128 M 198.5721 222.04 L 198.5721 223.8128 M 205.8337 222.04 L 205.8337 223.8128 M 209.3378 222.04 L 209.3378 223.8128 M 202.0762 222.04 L 202.0762 223.8128 M 207.6069 222.04 L 207.6069 223.8128 M 211.111 222.04 L 211.111 223.8128 M 200.303 222.04 L 200.303 223.8128 M 215.2063 222.04 L 215.2063 223.8128 M 233.8247 222.04 L 233.8247 223.8128 M 220.4836 222.04 L 220.4836 223.8128 M 218.7104 222.04 L 218.7104 223.8128 M 226.4364 222.04 L 226.4364 223.8128 M 224.6633 222.04 L 224.6633 223.8128 M 228.1674 222.04 L 228.1674 223.8128 M 216.9794 222.04 L 216.9794 223.8128 M 229.9406 222.04 L 229.9406 223.8128 M 239.1021 222.04 L 239.1021 223.8128 M 237.3289 222.04 L 237.3289 223.8128 M 243.0284 222.04 L 243.0284 223.8128 M 246.5326 222.04 L 246.5326 223.8128 M 248.3058 222.04 L 248.3058 223.8128 M 244.8016 222.04 L 244.8016 223.8128 M 235.5979 222.04 L 235.5979 223.8128 M 239.1021 237.9105 L 239.1021 239.6833 M 237.3289 237.9105 L 237.3289 239.6833 M 235.5979 237.9105 L 235.5979 239.6833 M 243.0284 237.9105 L 243.0284 239.6833 M 246.5326 237.9105 L 246.5326 239.6833 M 248.3058 237.9105 L 248.3058 239.6833 M 244.8016 237.9105 L 244.8016 239.6833 M 220.4836 237.9105 L 220.4836 239.6833 M 218.7104 237.9105 L 218.7104 239.6833 M 226.4364 237.9105 L 226.4364 239.6833 M 224.6633 237.9105 L 224.6633 239.6833 M 228.1674 237.9105 L 228.1674 239.6833 M 229.9406 237.9105 L 229.9406 239.6833 M 216.9794 237.9105 L 216.9794 239.6833 M 233.8247 237.9105 L 233.8247 239.6833 M 200.303 237.9105 L 200.303 239.6833 M 202.0762 237.9105 L 202.0762 239.6833 M 207.6069 237.9105 L 207.6069 239.6833 M 215.2063 237.9105 L 215.2063 239.6833 M 211.111 237.9105 L 211.111 239.6833 M 205.8337 237.9105 L 205.8337 239.6833 M 209.3378 237.9105 L 209.3378 239.6833 M 198.5721 237.9105 L 198.5721 239.6833 M 187.4685 237.9105 L 187.4685 239.6833 M 196.7989 237.9105 L 196.7989 239.6833 M 192.7458 237.9105 L 192.7458 239.6833 M 190.9727 237.9105 L 190.9727 239.6833 M 183.6688 237.9105 L 183.6688 239.6833 M 189.2417 237.9105 L 189.2417 239.6833 M 207.6069 282.3142 L 207.6069 284.087 M 215.2063 282.3142 L 215.2063 284.087 M 211.111 282.3142 L 211.111 284.087 M 209.3378 282.3142 L 209.3378 284.087 M 202.0762 282.3142 L 202.0762 284.087 M 205.8337 282.3142 L 205.8337 284.087 M 200.303 282.3142 L 200.303 284.087 M 192.7458 282.3142 L 192.7458 284.087 M 196.7989 282.3142 L 196.7989 284.087 M 198.5721 282.3142 L 198.5721 284.087 M 183.6688 282.3142 L 183.6688 284.087 M 190.9727 282.3142 L 190.9727 284.087 M 187.4685 282.3142 L 187.4685 284.087 M 189.2417 282.3142 L 189.2417 284.087 M 239.1021 282.3142 L 239.1021 284.087 M 244.8016 282.3142 L 244.8016 284.087 M 248.3058 282.3142 L 248.3058 284.087 M 246.5326 282.3142 L 246.5326 284.087 M 243.0284 282.3142 L 243.0284 284.087 M 237.3289 282.3142 L 237.3289 284.087 M 235.5979 282.3142 L 235.5979 284.087 M 233.8247 282.3142 L 233.8247 284.087 M 228.1674 282.3142 L 228.1674 284.087 M 229.9406 282.3142 L 229.9406 284.087 M 226.4364 282.3142 L 226.4364 284.087 M 216.9794 282.3142 L 216.9794 284.087 M 220.4836 282.3142 L 220.4836 284.087 M 218.7104 282.3142 L 218.7104 284.087 M 224.6633 282.3142 L 224.6633 284.087 M 174.7607 237.9105 L 174.7607 239.6833 M 169.4833 237.9105 L 169.4833 239.6833 M 171.2565 237.9105 L 171.2565 239.6833 M 172.9875 237.9105 L 172.9875 239.6833 M 166.1902 237.9105 L 166.1902 239.6833 M 180.1647 237.9105 L 180.1647 239.6833 M 178.3915 237.9105 L 178.3915 239.6833 M 181.8956 237.9105 L 181.8956 239.6833 M 160.9129 237.9105 L 160.9129 239.6833 M 164.4171 237.9105 L 164.4171 239.6833 M 162.6861 237.9105 L 162.6861 239.6833 M 174.7607 282.3142 L 174.7607 284.087 M 181.8956 282.3142 L 181.8956 284.087 M 180.1647 282.3142 L 180.1647 284.087 M 178.3915 282.3142 L 178.3915 284.087 M 172.9875 282.3142 L 172.9875 284.087 M 171.2565 282.3142 L 171.2565 284.087 M 166.1902 282.3142 L 166.1902 284.087 M 169.4833 282.3142 L 169.4833 284.087 M 162.6861 282.3142 L 162.6861 284.087 M 164.4171 282.3142 L 164.4171 284.087 M 160.9129 282.3142 L 160.9129 284.087" fill="none" stroke="#FFFFFF" stroke-width="1"/>
        <path d="M 287.4848 284.4247 L 287.4848 180.7175 M 296.6463 284.4247 L 296.6463 180.7175 M 305.8077 284.4247 L 305.8077 180.7175 M 314.8848 284.4247 L 314.8848 180.7175 M 323.9618 284.4247 L 323.9618 180.7175 M 333.5877 284.4247 L 333.5877 180.7175 M 342.4959 284.4247 L 342.4959 180.7175 M 259.2827 284.4247 L 259.2827 180.7175 M 268.8241 284.4247 L 268.8241 180.7175 M 277.9011 284.4247 L 277.9011 180.7175 M 167.6679 284.4247 L 167.6679 180.7175 M 176.7449 284.4247 L 176.7449 180.7175 M 185.4842 284.4247 L 185.4842 180.7175 M 194.9835 284.4247 L 194.9835 180.7175 M 203.9761 284.4247 L 203.9761 180.7175 M 213.1375 284.4247 L 213.1375 180.7175 M 222.7212 284.4247 L 222.7212 180.7175 M 231.9249 284.4247 L 231.9249 180.7175 M 241.0441 284.4247 L 241.0441 180.7175 M 250.1212 284.4247 L 250.1212 180.7175 M 159.5619 180.7175 L 159.5619 284.4247" fill="none" stroke="#FFFFFF" stroke-width="1"/>
        <path d="M 364.6379 220.11 L 364.6672 221.1928 373.4473 220.8124 373.4181 219.7295 364.6379 220.11 Z" fill="#FCC921"/>
        <path d="M 364.6672 241.3871 L 364.6379 242.47 373.4181 242.8505 373.4473 241.7676 364.6672 241.3871 Z" fill="#FCC921"/>
        <path d="M 364.4038 242.1188 L 365.9842 242.1188 365.9842 220.1685 364.4038 220.1685 364.4038 242.1188 Z" fill="#FCC921"/>
        <path d="M 362.9112 230.4413 L 362.9112 231.5534 365.8379 231.5534 365.8379 230.4413 362.9112 230.4413 Z" fill="#FCC921"/>
        <path d="M 363.4965 232.1387 L 363.4965 229.7974 361.7405 229.7974 361.7405 232.1387 363.4965 232.1387 Z" fill="#FC7A3C"/>
        <path d="M 137.9441 221.1928 L 138.0027 220.11 129.2225 219.7295 129.1933 220.8124 137.9441 221.1928 Z" fill="#FCC921"/>
        <path d="M 138.0027 242.47 L 137.9441 241.3871 129.1933 241.7676 129.2225 242.8505 138.0027 242.47 Z" fill="#FCC921"/>
        <path d="M 136.6564 242.1188 L 138.2368 242.1188 138.2368 220.1685 136.6564 220.1685 136.6564 242.1188 Z" fill="#FCC921"/>
        <path d="M 139.7002 231.5534 L 139.7002 230.4413 136.8027 230.4413 136.8027 231.5534 139.7002 231.5534 Z" fill="#FCC921"/>
        <path d="M 139.1441 229.7974 L 139.1441 232.1387 140.9001 232.1387 140.9001 229.7974 139.1441 229.7974 Z" fill="#FC7A3C"/>
        <path d="M 37.7 217.7 L 37.7 205.25 32.8 204.7 27.25 217.7 37.7 217.7 Z M 103.7853 211.2133 L 105.4586 203.5945 48.38892 187.7873 44.25911 217.6928 44.25911 217.7996 103.7853 217.7996 103.7853 211.2133 Z" class="selectablePath" id="sec_end_2_end" fill="#e2e2e2"/>
        <path d="M 89.331 95.18697 L 65.22858 122.814 107.4167 165.5005 114.3947 160.1959 120.8742 157.3477 124.7192 156.2085 89.331 95.18697 Z" class="selectablePath" id="sec_corner_5_corner" fill="#e2e2e2"/>
        <path d="M 143.873 156.2085 L 159.965 156.2085 159.965 61.47206 121.6574 74.0751 143.873 156.2085 Z" class="selectablePath" id="sec_side_7_side" fill="#e2e2e2"/>
        <path d="M 185.4203 56.87943 L 159.965 61.47206 159.965 156.2085 185.4203 156.2085 185.4203 56.87943 Z" class="selectablePath" id="sec_side_8_side" fill="#e2e2e2"/>
        <path d="M 210.1991 56.87943 L 185.4203 56.87943 185.4203 156.2085 210.1991 156.2085 210.1991 56.87943 Z" class="selectablePath" id="sec_side_9_side" fill="#e2e2e2"/>
        <path d="M 235.334 56.87943 L 210.1991 56.87943 210.1991 156.2085 235.334 156.2085 235.334 56.87943 Z" class="selectablePath" id="sec_side_10_side" fill="#e2e2e2"/>
        <path d="M 259.8993 156.2085 L 259.8993 56.87943 235.334 56.87943 235.334 156.2085 259.8993 156.2085 Z" class="selectablePath" id="sec_side_11_side" fill="#e2e2e2"/>
        <path d="M 309.7062 56.87943 L 284.8205 56.87943 284.8205 156.2085 309.7062 156.2085 309.7062 56.87943 Z" class="selectablePath" id="sec_side_13_side" fill="#e2e2e2"/>
        <path d="M 334.9122 61.57887 L 309.7061 56.87943 309.7061 156.2085 334.9122 156.2085 334.9122 61.57887 Z" class="selectablePath" id="sec_side_14_side" fill="#e2e2e2"/>
        <path d="M 334.9122 156.2085 L 351.1111 156.2085 373.4334 74.1819 334.9122 61.57887 334.9122 156.2085 Z" class="selectablePath" id="sec_side_15_side" fill="#e2e2e2"/>
        <path d="M 405.7242 95.75659 L 373.4334 74.18189 351.1111 156.2085 370.1224 156.2085 405.7242 95.75659 Z" class="selectablePath" id="sec_side_16_side" fill="#e2e2e2"/>
        <path d="M 449.6925 189.0333 L 450.2621 186.648 389.4898 203.3096 390.9495 210.5724 391.4479 219.1169 450.7249 219.1169 450.7249 218.0488 446.8443 189.7454 449.6925 189.0333 Z M 462.0463 204.4133 L 455.6024 205.1965 457.3469 218.7964 457.3469 221.6446 464.6096 221.6446 464.6096 209.4332 462.0463 204.4133 Z" class="selectablePath" id="sec_end_20_end" fill="#e2e2e2"/>
        <path d="M 404.1578 227.3053 L 391.4479 227.3053 391.4479 252.9386 450.7249 253.8998 450.7249 219.1169 404.1578 219.1169 404.1578 227.3053 Z M 457.3469 221.6446 L 457.3469 250.6956 458.593 254.3626 464.6096 254.3626 464.6096 221.6446 457.3469 221.6446 Z" class="selectablePath" id="sec_end_21_end" fill="#d86f6f"/>
        <path d="M 392.6584 354.3325 L 368.4136 311.5035 350.1142 311.7883 364.7466 365.5827 392.6584 354.3325 Z M 386.7485 365.9743 L 387.9945 368.7868 378.7737 372.9522 377.2428 369.5345 371.9381 371.9198 369.446 371.9198 390.8783 453.8039 394.4385 464.7693 405.1546 457.3641 420.6414 444.3339 433.8853 431.2324 394.9725 362.3429 386.7485 365.9743 Z" class="selectablePath" id="sec_side_26_side" fill="#e2e2e2"/>
        <path d="M 350.1142 311.7883 L 334.7342 311.7883 334.7698 369.6413 364.7466 365.5827 350.1142 311.7883 Z M 338.2232 375.9428 L 335.5887 378.0433 340.4305 453.8039 390.8783 453.8039 369.446 371.9198 338.2232 375.9428 Z" class="selectablePath" id="sec_side_27_side" fill="#bc91c1"/>
        <path d="M 160.3922 311.7883 L 144.7986 311.7883 130.0595 366.0099 160.3922 369.6413 160.3922 311.7883 Z M 128.5998 372.1334 L 126.3925 371.3502 104.177 453.8039 155.1943 453.8039 160.3922 376.7972 128.5998 372.1334 Z" class="selectablePath" id="sec_side_35_side" fill="#bc91c1"/>
        <path d="M 128.0302 311.7883 L 126.5705 311.5035 102.5749 354.4393 130.0595 366.0099 144.7986 311.7883 128.0302 311.7883 Z M 108.7696 365.0843 L 100.7592 361.5597 61.13437 430.5916 70.99607 440.9161 83.3855 452.3087 101.2932 465.0541 126.3925 371.3502 118.3465 368.6088 116.1748 372.8098 107.0963 368.8224 108.7696 365.0843 Z" class="selectablePath" id="sec_side_36_side" fill="#dfca5b"/>
        <path d="M 126.5705 311.5035 L 123.4019 310.8983 116.5308 308.4774 110.9413 304.1339 78.57926 335.962 102.5749 354.4393 126.5705 311.5035 Z M 74.34264 341.053 L 72.34895 338.8101 28.73673 382.7072 36.81834 397.6599 47.6769 414.2859 61.13438 430.5916 100.7592 361.5597 74.34264 341.053 Z" class="selectablePath" id="sec_corner_37_corner" fill="#e2e2e2"/>
        <path d="M 391.4479 259.062 L 389.6322 268.2473 446.8799 284.1257 450.7249 253.8998 391.4479 252.9385 391.4479 259.062 Z M 484.1194 280.2451 L 482.0189 262.3018 464.6096 262.3018 464.6096 254.3626 458.5929 254.3626 457.062 266.5384 460.6222 266.8944 459.9102 273.908 456.4568 273.552 455.4956 282.8441 453.6798 284.1613 484.9026 292.1005 484.1194 280.2451 Z" class="selectablePath" id="sec_end_22_end" fill="#e2e2e2"/>
        <path d="M 44.25911 253.7218 L 48.63814 283.9121 105.2806 268.1761 104.0702 258.6349 103.7853 252.9742 44.25911 252.9742 44.25911 253.7218 Z M 12.07508 267.9269 L 10.18819 284.8022 10.18819 292.6702 41.37537 284.3394 40.1293 272.9112 35.85709 273.5876 34.78903 267.0013 39.16806 266.2892 37.56598 256.1071 14.4248 256.9972 12.07508 267.9269 Z" class="selectablePath" id="sec_end_40_end" fill="#d86f6f"/>
        <path d="M 44.25911 217.7996 L 44.25911 252.9742 90.93308 252.9742 90.93308 244.7857 103.7853 244.7857 103.7853 227.056 90.93308 227.056 90.93308 217.7996 44.25911 217.7996 Z M 24.03729 224.9556 L 16.77452 246.103 14.4248 256.9972 37.56598 256.1071 37.56598 217.7996 27.09904 217.7996 24.03729 224.9556 Z" class="selectablePath" id="sec_end_1_end" fill="#d86f6f"/>
        <path d="M 429.4706 123.2412 L 405.7243 95.75659 370.1225 156.2085 376.2816 157.8817 383.4375 162.154 387.1757 164.9665 429.4706 123.2412 Z" class="selectablePath" id="sec_corner_17_corner" fill="#e2e2e2"/>
        <path d="M 383.8647 168.2775 L 383.8647 190.2438 444.2098 154.6776 429.4706 123.2412 383.8647 168.2775 Z" class="selectablePath" id="sec_corner_18_corner" fill="#e2e2e2"/>
        <path d="M 450.2621 186.648 L 450.7961 184.2627 444.2098 154.6776 383.8647 190.2438 387.5317 197.4353 389.4898 203.3096 450.2621 186.648 Z" class="selectablePath" id="sec_corner_19_corner" fill="#f4ad58"/>
        <path d="M 387.0333 275.7949 L 383.8647 281.9896 434.9889 311.7883 446.8799 284.1257 389.6322 268.2473 387.0333 275.7949 Z M 484.155 313.8177 L 484.9738 293.0974 484.9026 292.1006 453.6798 284.1613 440.97 314.4585 441.0768 317.1998 480.5948 339.1661 481.9477 331.6541 484.155 313.8177 Z" class="selectablePath" id="sec_corner_23_corner" fill="#f4ad58"/>
        <path d="M 416.6184 335.7484 L 434.9889 311.7883 383.8647 281.9896 383.8647 304.2408 416.6184 335.7484 Z M 480.4168 340.163 L 480.5948 339.1661 441.0768 317.1998 435.7009 324.8542 438.5135 327.0615 432.3544 334.9651 429.435 332.9714 425.4832 338.7033 423.0267 339.0949 465.9269 383.17 466.4253 382.2443 474.6493 361.6309 480.4168 340.163 Z" class="selectablePath" id="sec_corner_24_corner" fill="#f4ad58"/>
        <path d="M 373.825 310.1862 L 368.4135 311.5035 392.6584 354.3325 416.6184 335.7484 383.8647 304.2408 379.9841 307.3381 373.825 310.1862 Z M 395.9693 359.9576 L 394.9725 362.3429 433.8853 431.2324 443.3553 420.1246 455.3176 402.6797 465.9269 383.17 423.0267 339.0949 395.9693 359.9576 Z" class="selectablePath" id="sec_corner_25_corner" fill="#e2e2e2"/>
        <path d="M 78.57926 335.962 L 110.9413 304.1339 110.9413 281.3488 60.10192 312.0376 78.57926 335.962 Z M 72.34895 338.8101 L 66.40343 332.0458 62.80766 334.8227 56.86216 327.1327 60.24433 323.9286 54.61924 316.737 14.56721 339.3797 19.65827 359.7084 28.73673 382.7072 72.34895 338.8101 Z" class="selectablePath" id="sec_corner_38_corner" fill="#e2e2e2"/>
        <path d="M 107.3099 273.6588 L 105.2806 268.1761 48.63814 283.9121 60.10192 312.0376 110.9413 281.3488 107.3099 273.6588 Z M 10.18819 300.5382 L 11.25624 317.5558 14.56721 339.3797 54.61924 316.737 41.37537 284.3394 10.18819 292.6702 10.18819 300.5382 Z" class="selectablePath" id="sec_corner_39_corner" fill="#e2e2e2"/>
        <path d="M 107.8083 196.8301 L 111.1193 190.1726 50.73864 154.5352 44.15231 184.0847 45.04235 186.8616 105.4586 203.5945 107.8083 196.8301 Z" class="selectablePath" id="sec_corner_3_corner" fill="#e2e2e2"/>
        <path d="M 111.1193 167.1738 L 110.2293 168.3487 65.22858 122.814 50.73864 154.5352 111.1193 190.1726 111.1193 167.1738 Z" class="selectablePath" id="sec_corner_4_corner" fill="#f4ad58"/>
        <path d="M 121.6574 74.07509 L 89.331 95.18696 124.7192 156.2085 143.873 156.2085 121.6574 74.07509 Z" class="selectablePath" id="sec_corner_6_corner" fill="#e2e2e2"/>
        <path d="M 284.8205 56.87943 L 259.8992 56.87943 259.8992 156.2085 284.8205 156.2085 284.8205 56.87943 Z" class="selectablePath" id="sec_side_12_side" fill="#e2e2e2"/>
        <path d="M 334.75 311.8 L 310.4 311.8 310.4 369.65 334.75 369.65 334.75 311.8 Z" class="selectablePath" id="sec_side_28_side" fill="#e2e2e2"/>
        <path d="M 310.4 311.8 L 288.95 311.8 288.95 369.65 310.4 369.65 310.4 311.8 Z" class="selectablePath" id="sec_side_29_side" fill="#e2e2e2"/>
        <path d="M 288.95 311.8 L 261.45 311.8 261.45 369.65 288.95 369.65 288.95 311.8 Z" class="selectablePath" id="sec_pref_30_pref" fill="#e2e2e2"/>
        <path d="M 261.45 311.8 L 233.4 311.8 233.4 369.65 261.45 369.65 261.45 311.8 Z" class="selectablePath" id="sec_pref_31_pref" fill="#e2e2e2"/>
        <path d="M 233.4 311.8 L 205.9 311.8 205.9 369.65 233.4 369.65 233.4 311.8 Z" class="selectablePath" id="sec_pref_32_pref" fill="#e2e2e2"/>
        <path d="M 205.9 311.8 L 184.65 311.8 184.65 369.65 205.9 369.65 205.9 311.8 Z" class="selectablePath" id="sec_side_33_side" fill="#e2e2e2"/>
        <path d="M 184.65 311.8 L 160.4 311.8 160.4 369.65 184.65 369.65 184.65 311.8 Z" class="selectablePath" id="sec_side_34_side" fill="#e2e2e2"/>
        <path d="M 338.55 424.2 L 315 424.2 315 453.8 340.45 453.8 338.55 424.2 M 328.2 382.2 L 318.05 382.2 318.05 378.05 312.25 378.05 310.85 376.35 310.85 418.15 338.2 418.15 335.6 378.05 328.2 378.05 328.2 382.2 Z" class="selectablePath" id="sec_pref_28_pref" fill="#e2e2e2"/>
        <path d="M 179.65 424.2 L 157.2 424.2 155.2 453.8 179.65 453.8 179.65 424.2 M 184.1 378.15 L 176.95 378.15 176.95 382 167.05 382 167.05 378.15 162.1 378.15 160.4 376.8 157.6 418.15 184.1 418.15 184.1 378.15 Z" class="selectablePath" id="sec_pref_34_pref" fill="#e2e2e2"/>
        <path d="M 315 424.2 L 287.95 424.2 287.95 453.8 315 453.8 315 424.2 M 310.85 418.15 L 310.85 376.35 290.05 376.35 287.95 378.05 287.95 418.15 310.85 418.15 Z" class="selectablePath" id="sec_club_29_club" fill="#e2e2e2"/>
        <path d="M 287.95 424.2 L 260.05 424.2 260.05 453.8 287.95 453.8 287.95 424.2 M 278.5 378.05 L 278.5 382 271.65 382 271.65 378.05 264.3 378.05 262.6 376.55 262.6 418.15 287.95 418.15 287.95 378.05 278.5 378.05 Z" class="selectablePath" id="sec_club_30_club" fill="#e2e2e2"/>
        <path d="M 260.05 424.2 L 235.05 424.2 235.05 453.8 260.05 453.8 260.05 424.2 M 262.6 418.15 L 262.6 376.55 234.25 376.55 232.45 378.2 232.45 418.15 262.6 418.15 Z" class="selectablePath" id="sec_club_31_club" fill="#e2e2e2"/>
        <path d="M 235.05 424.2 L 207.45 424.2 207.45 453.8 235.05 453.8 235.05 424.2 M 208.9 378.2 L 207.25 376.4 207.25 418.15 232.45 418.15 232.45 378.2 223.4 378.2 223.4 382.4 216.65 382.4 216.65 378.2 208.9 378.2 Z" class="selectablePath" id="sec_club_32_club" fill="#e2e2e2"/>
        <path d="M 207.45 424.2 L 179.65 424.2 179.65 453.8 207.45 453.8 207.45 424.2 M 207.25 418.15 L 207.25 376.4 185.8 376.4 184.1 378.15 184.1 418.15 207.25 418.15 Z" class="selectablePath" id="sec_club_33_club" fill="#e2e2e2"/>
        <path d="M 442.8213 114.5399 L 416.2624 83.77999 380.3758 59.81997 338.8284 46.22009 311.2014 41.05782 183.9962 41.05782 156.0844 46.11328 114.7507 59.71317 78.86407 83.10355 51.8423 114.1127 35.71468 149.4297 28.38071 182.219 37.70838 184.3195 44.82874 152.4915 59.99511 119.3818 85.23679 90.40192 118.9517 68.40001 158.4341 55.40535 184.8506 50.63471 310.3114 50.63471 336.4431 55.51216 376.1747 68.50681 409.854 91.00716 434.7041 119.7734 450.1197 152.6339 457.1689 184.2483 466.4965 182.1478 459.2338 149.5009 442.8213 114.5399 Z" class="selectablePath" id="sec_sro_sro" fill="#e2e2e2"/>
        <path d="M 278.75 13.35 L 278.75 5.6 228.9 5.6 228.9 13.35 191.45 13.35 191.45 5.6 182.4 5.6 179.8 6.7 179 9.45 179 38.2 316.35 38.2 316.35 8.5 315.1 6.9 311.85 5.6 303.6 5.6 303.6 13.35 278.75 13.35 Z" class="selectablePath" id="sec_cb_cb" fill="#e2e2e2"/>
        <path d="M 357.05 491.6 L 365.9 486.75 362.2 468.25 132.8 468.25 129.15 484.5 131.15 487.7 150.55 497.4 168.7 504.35 187.2 509.75 206.3 513.7 225.55 516.15 244.55 517.4 264.05 516.7 283.2 514.6 302.25 511 321 505.95 339.45 499.5 357.05 491.6 Z" class="selectablePath" id="sec_clb_aut_clb_aut" fill="#e2e2e2"/>
    </g>
</svg>
